<!-- Created with Inkscape (http://www.inkscape.org/) -->
<svg xmlns:rdf="http://www.w3.org/1999/02/22-rdf-syntax-ns#" xmlns="http://www.w3.org/2000/svg" height="100%" width="100%" version="1.1" xmlns:cc="http://creativecommons.org/ns#" xmlns:dc="http://purl.org/dc/elements/1.1/" viewBox="0 0 199.99796 200.0021">
 <metadata>
  <rdf:RDF>
   <cc:Work rdf:about="">
    <dc:format>image/svg+xml</dc:format>
    <dc:type rdf:resource="http://purl.org/dc/dcmitype/StillImage"/>
    <dc:title/>
   </cc:Work>
  </rdf:RDF>
 </metadata>
 <g transform="translate(-43.454595,-526.09223)">
  <g transform="matrix(0.94747422,0,0,0.99568623,-19.982534,-13.794475)">
   <path fill-rule="nonzero" transform="matrix(0.0080473,0.99996762,-0.99996762,0.0080473,718.80557,430.88728)" fill="#abccff" d="M307.14,613.79,182.95,653.3,107,547.39,184.25,442.43,307.95,483.47z"/>
   <path stroke-linejoin="miter" d="m172.31,542.71-0.45645,102.63" stroke="#808080" stroke-linecap="butt" stroke-width="1px" fill="#808080"/>
   <path stroke-linejoin="miter" d="m67.466,619.27,104.42,25.759" stroke="#808080" stroke-linecap="butt" stroke-width="1px" fill="#808080"/>
   <path stroke-linejoin="miter" d="M277.53,618.86,172,644.73" stroke="#808080" stroke-linecap="butt" stroke-width="1px" fill="#808080"/>
   <path stroke-linejoin="miter" d="M237.62,742.39,172.17,645.33" stroke="#808080" stroke-linecap="butt" stroke-width="1px" fill="#808080"/>
   <path stroke-linejoin="miter" d="m107.82,742.61,63.787-97.918" stroke="#808080" stroke-linecap="butt" stroke-width="1px" fill="#808080"/>
   <path d="m139.02,694.27-46.605-68.966,79.519-47.539,75.625,48.464-36.564,76.823z" fill-rule="nonzero" fill="#333"/>
   <text style="letter-spacing:0px;word-spacing:0px;" font-weight="normal" xml:space="preserve" font-size="46.28166199px" font-stretch="normal" line-height="125%" font-variant="normal" y="649.38617" x="123.17712" font-family="Lucida Console" font-style="normal" fill="#abccff"><tspan font-weight="normal" font-size="18px" font-style="normal" font-stretch="normal" font-variant="normal" y="649.38617" x="123.17712" font-family="Roboto" fill="#abccff">Architecture</tspan></text>
  </g>
  <path d="m212.5,512.36c0,4.1421-3.5817,7.5-8,7.5s-8-3.3579-8-7.5,3.5817-7.5,8-7.5,8,3.3579,8,7.5z" fill-rule="nonzero" transform="matrix(1.25,0,0,1.3333333,-112.51864,-119.39376)" stroke="#ACF" fill="#333"/>
  <text style="letter-spacing:0px;word-spacing:0px;" font-weight="normal" xml:space="preserve" transform="scale(0.81768483,1.2229651)" font-stretch="normal" line-height="125%" font-size="12.77459621px" font-variant="normal" y="465.58099" x="172.19157" font-family="Roboto" font-style="normal" fill="#abccff"><tspan font-size="12.77459621px" y="465.58099" x="172.19157" fill="#abccff">1</tspan></text>
  <g transform="translate(-29.5,6.5)">
   <path d="m212.5,512.36c0,4.1421-3.5817,7.5-8,7.5s-8-3.3579-8-7.5,3.5817-7.5,8-7.5,8,3.3579,8,7.5z" fill-rule="nonzero" transform="matrix(1.25,0,0,1.3333333,-13.518635,-80.393715)" stroke="#ACF" fill="#333"/>
   <text style="letter-spacing:0px;word-spacing:0px;" font-weight="normal" xml:space="preserve" transform="scale(0.81768483,1.2229651)" font-stretch="normal" line-height="125%" font-size="12.77459621px" font-variant="normal" y="497.47076" x="292.38562" font-family="Roboto" font-style="normal" fill="#abccff"><tspan font-size="12.77459621px" y="497.47076" x="292.38562" fill="#abccff">2</tspan></text>
  </g>
  <path d="m212.5,512.36c0,4.1421-3.5817,7.5-8,7.5s-8-3.3579-8-7.5,3.5817-7.5,8-7.5,8,3.3579,8,7.5z" fill-rule="nonzero" transform="matrix(1.25,0,0,1.3333333,-76.625005,-0.787364)" stroke="#ACF" fill="#333"/>
  <text style="letter-spacing:0px;word-spacing:0px;" font-weight="normal" xml:space="preserve" transform="scale(0.81768483,1.2229651)" font-stretch="normal" line-height="125%" font-size="12.77459621px" font-variant="normal" y="562.56366" x="215.20876" font-family="Roboto" font-style="normal" fill="#abccff"><tspan font-size="12.77459621px" y="562.56366" x="215.20876" fill="#abccff">3</tspan></text>
  <g transform="translate(29,-51)">
   <path d="m212.5,512.36c0,4.1421-3.5817,7.5-8,7.5s-8-3.3579-8-7.5,3.5817-7.5,8-7.5,8,3.3579,8,7.5z" fill-rule="nonzero" transform="matrix(1.25,0,0,1.3333333,-172.625,42.212623)" stroke="#ACF" fill="#333"/>
   <text style="letter-spacing:0px;word-spacing:0px;" font-weight="normal" xml:space="preserve" transform="scale(0.81768483,1.2229651)" font-stretch="normal" line-height="125%" font-size="12.77459621px" font-variant="normal" y="597.72412" x="97.804108" font-family="Roboto" font-style="normal" fill="#abccff"><tspan font-size="12.77459621px" y="597.72412" x="97.804108" fill="#abccff">4</tspan></text>
  </g>
  <g transform="translate(24,5)">
   <path d="m212.5,512.36c0,4.1421-3.5817,7.5-8,7.5s-8-3.3579-8-7.5,3.5817-7.5,8-7.5,8,3.3579,8,7.5z" fill-rule="nonzero" transform="matrix(1.25,0,0,1.3333333,-209.125,-79.787377)" stroke="#ACF" fill="#333"/>
   <text style="letter-spacing:0px;word-spacing:0px;" font-weight="normal" xml:space="preserve" transform="scale(0.81768483,1.2229651)" font-stretch="normal" line-height="125%" font-size="12.77459621px" font-variant="normal" y="497.96658" x="53.165882" font-family="Roboto" font-style="normal" fill="#abccff"><tspan font-size="12.77459621px" y="497.96658" x="53.165882" fill="#abccff">5</tspan></text>
  </g>
 </g>
</svg>
