<!-- Created with Inkscape (http://www.inkscape.org/) --><svg xmlns:rdf="http://www.w3.org/1999/02/22-rdf-syntax-ns#" xmlns="http://www.w3.org/2000/svg" version="1.1" xmlns:cc="http://creativecommons.org/ns#" xmlns:dc="http://purl.org/dc/elements/1.1/" viewBox="0 0 200 200" preserveAspectRatio="xMidYmin meet"> <metadata>  <rdf:RDF>   <cc:Work rdf:about="">    <dc:format>image/svg+xml</dc:format>    <dc:type rdf:resource="http://purl.org/dc/dcmitype/StillImage"/>    <dc:title/>   </cc:Work>  </rdf:RDF> </metadata> <g transform="translate(-345.71428,-435.21933)">  <g transform="translate(-173.11162,418.57199)">   <path d="m611,16.649c-49.264,3.749-88.586,43.157-92.178,92.473h25.156c3.4646-35.542,31.692-63.811,67.209-67.344v-25.129c-0.0626,0.005-0.1252-0.005-0.18774,0z" fill-rule="nonzero" fill="#abccff"/>   <path d="m626.21,16.649,0,25.129c37.941,3.7742,67.584,35.789,67.584,74.73,0,41.479-33.621,75.105-75.094,75.105-38.892,0-70.887-29.582-74.718-67.469h-25.125c3.9035,51.735,47.117,92.504,99.844,92.504,55.298,0,100.13-44.834,100.13-100.14,0-52.777-40.829-96.015-92.616-99.858z" fill-rule="nonzero" fill="#333"/>   <path d="m361.43,413.08c0,27.614-21.826,50-48.75,50s-48.75-22.386-48.75-50v-0.00001l48.75,0.00001z" fill-rule="nonzero" transform="matrix(1.3333333,0,0,1.3344402,201.92117,-432.76753)" fill="#333"/>   <path d="m361.43,413.08c0,27.614-21.826,50-48.75,50s-48.75-22.386-48.75-50v-0.00001l48.75,0.00001z" fill-rule="nonzero" transform="matrix(1.3333333,0,0,-1.3344402,201.92117,667.49189)" fill="#abccff"/>   <text style="letter-spacing:0px;word-spacing:0px;" font-weight="bold" transform="scale(0.99958517,1.000415)" font-style="normal" font-stretch="normal" xml:space="preserve" line-height="125%" font-size="18.67441368px" font-variant="normal" y="79.157082" x="597.39728" font-family="Roboto" fill="#333333"><tspan y="79.157082" x="597.39728">Front</tspan><tspan y="102.5001" x="597.39728"/></text>   <text style="letter-spacing:0px;word-spacing:0px;" font-weight="bold" transform="scale(0.99958517,1.000415)" font-style="normal" font-stretch="normal" xml:space="preserve" line-height="125%" font-size="18.67441368px" font-variant="normal" y="98.754463" x="604.21326" font-family="Lucida Console" fill="#333333"><tspan font-style="normal" font-stretch="normal" font-variant="normal" y="98.754463" x="604.21326" font-family="Roboto">End</tspan><tspan y="122.09748" x="604.21326"/></text>   <text style="letter-spacing:0px;word-spacing:0px;" font-weight="normal" transform="scale(0.99958517,1.000415)" font-style="normal" font-stretch="normal" xml:space="preserve" line-height="125%" font-size="18.67441368px" font-variant="normal" y="145.17999" x="598.57813" font-family="Lucida Console" fill="#abccff"><tspan font-weight="bold" font-style="normal" font-stretch="normal" font-variant="normal" y="145.17999" x="598.57813" font-family="Roboto" fill="#abccff">Back</tspan></text>   <text style="letter-spacing:0px;word-spacing:0px;" font-weight="normal" transform="scale(0.99958517,1.000415)" font-style="normal" font-stretch="normal" xml:space="preserve" line-height="125%" font-size="18.67441368px" font-variant="normal" y="166.4252" x="604.21326" font-family="Lucida Console" fill="#abccff"><tspan font-weight="bold" font-style="normal" font-stretch="normal" font-variant="normal" y="166.4252" x="604.21326" font-family="Roboto" fill="#abccff">End</tspan></text>  </g> </g></svg>