<!-- Created with Inkscape (http://www.inkscape.org/) -->
<svg xmlns:rdf="http://www.w3.org/1999/02/22-rdf-syntax-ns#" xmlns="http://www.w3.org/2000/svg" height="100%" width="100%" version="1.1" xmlns:cc="http://creativecommons.org/ns#" xmlns:dc="http://purl.org/dc/elements/1.1/" viewBox="0 0 200 200">
 <metadata>
  <rdf:RDF>
   <cc:Work rdf:about="">
    <dc:format>image/svg+xml</dc:format>
    <dc:type rdf:resource="http://purl.org/dc/dcmitype/StillImage"/>
    <dc:title/>
   </cc:Work>
  </rdf:RDF>
 </metadata>
 <g transform="translate(-33.820672,-348.07647)">
  <g transform="translate(-23.558036,100.01397)">
   <path fill-rule="nonzero" fill="#abccff" d="m157.16,248.06,0,23.062c42.483,0,76.938,34.454,76.938,76.938,0,42.483-34.454,76.906-76.938,76.906-24.142,0-45.654-11.135-59.75-28.531l-18.875,13.37c18.309,23.278,46.713,38.25,78.625,38.25,55.228,0,100-44.772,100-100s-44.772-100-100-100zm-43.6,13.38v0.21875c0.1054-0.0726,0.20672-0.14666,0.3125-0.21875h-0.31z"/>
   <path d="m138.39,94.232c0,33.752-24.422,61.114-54.548,61.114s-54.548-27.362-54.548-61.114,24.422-61.114,54.548-61.114,54.548,27.362,54.548,61.114z" fill-rule="nonzero" transform="matrix(1.2831304,0,0,1.1452735,49.561792,240.1545)" fill="#333"/>
   <text style="letter-spacing:0px;word-spacing:0px;" font-family="Lucida Console" xml:space="preserve" font-size="46.28166199px" font-style="normal" font-stretch="normal" font-variant="normal" y="337.74902" x="126.18342" font-weight="normal" line-height="125%" fill="#abccff"><tspan font-family="Roboto" font-stretch="normal" font-variant="normal" y="337.74902" x="126.18342" font-weight="normal" font-style="normal" fill="#abccff">JS</tspan></text>
   <text style="letter-spacing:0px;word-spacing:0px;" font-family="Roboto" xml:space="preserve" font-size="14px" font-style="normal" font-stretch="normal" font-variant="normal" y="357.71109" x="155.35612" font-weight="normal" line-height="125%" fill="#abccff"><tspan y="357.71109" x="157.09245" style="text-anchor:middle;text-align:center;">HTML5 </tspan><tspan y="375.21109" x="155.35612" style="text-anchor:middle;text-align:center;">CSS3, Sass</tspan><tspan y="392.71109" x="155.35612" style="text-anchor:middle;text-align:center;">RiotJS, ExtJS</tspan></text>
  </g>
 </g>
</svg>
