<!-- Created with Inkscape (http://www.inkscape.org/) -->
<svg xmlns:rdf="http://www.w3.org/1999/02/22-rdf-syntax-ns#" xmlns="http://www.w3.org/2000/svg" height="100%" width="100%" version="1.1" xmlns:cc="http://creativecommons.org/ns#" xmlns:dc="http://purl.org/dc/elements/1.1/" viewBox="0 0 200 200">
 <metadata>
  <rdf:RDF>
   <cc:Work rdf:about="">
    <dc:format>image/svg+xml</dc:format>
    <dc:type rdf:resource="http://purl.org/dc/dcmitype/StillImage"/>
    <dc:title/>
   </cc:Work>
  </rdf:RDF>
 </metadata>
 <g transform="translate(-319.28276,-398.07647)">
  <g transform="translate(-118.52384,-60.298532)">
   <path fill-rule="nonzero" fill="#abccff" d="m537.81,458.38,0,23.062c42.483,0,76.938,34.454,76.938,76.938,0,42.421-34.352,76.806-76.75,76.906v23.094c55.142-0.10097,99.812-44.834,99.812-100,0-55.228-44.772-100-100-100zm-43.594,36.438,0,0.21875c0.1054-0.0726,0.20672-0.14666,0.3125-0.21875h-0.3125z"/>
   <path d="m138.39,94.232c0,33.752-24.422,61.114-54.548,61.114s-54.548-27.362-54.548-61.114,24.422-61.114,54.548-61.114,54.548,27.362,54.548,61.114z" fill-rule="nonzero" transform="matrix(1.2831304,0,0,1.1452735,430.21804,450.45418)" fill="#333"/>
   <text style="letter-spacing:0px;word-spacing:0px;" font-family="Lucida Console" xml:space="preserve" font-size="46.28166199px" font-style="normal" font-stretch="normal" font-variant="normal" y="548.04871" x="486.95966" font-weight="normal" line-height="125%" fill="#abccff"><tspan font-size="36px" font-family="Roboto" font-stretch="normal" font-variant="normal" y="548.04871" x="486.95966" font-weight="normal" font-style="normal" fill="#abccff">NoSql</tspan></text>
   <text style="letter-spacing:0px;word-spacing:0px;" font-family="Roboto" xml:space="preserve" font-size="14px" font-style="normal" font-stretch="normal" font-variant="normal" y="568.01074" x="536.01239" font-weight="normal" line-height="125%" fill="#abccff"><tspan y="568.01074" x="536.01239" style="text-anchor:middle;text-align:center;">Titan/Cassandra</tspan><tspan y="585.51074" x="536.01239" style="text-anchor:middle;text-align:center;">Neo4J</tspan><tspan y="603.01074" x="536.01239" style="text-anchor:middle;text-align:center;">MongoDB</tspan></text>
  </g>
 </g>
</svg>
