<!-- Created with Inkscape (http://www.inkscape.org/) -->
<svg xmlns:rdf="http://www.w3.org/1999/02/22-rdf-syntax-ns#" xmlns="http://www.w3.org/2000/svg" version="1.1" xmlns:cc="http://creativecommons.org/ns#" xmlns:dc="http://purl.org/dc/elements/1.1/" viewBox="0 0 200 200">
 <metadata>
  <rdf:RDF>
   <cc:Work rdf:about="">
    <dc:format>image/svg+xml</dc:format>
    <dc:type rdf:resource="http://purl.org/dc/dcmitype/StillImage"/>
    <dc:title/>
   </cc:Work>
  </rdf:RDF>
 </metadata>
 <g transform="translate(-268.57143,-429.50504)">
  <g transform="translate(-175.42857,-258.86996)">
   <path d="m544,688.38,0,23.062c42.483,0,76.938,34.454,76.938,76.938,0,42.483-34.454,76.906-76.938,76.906-42.483,0-76.906-34.423-76.906-76.906,0-15.837,4.82-30.551,13.031-42.781l-18.9-13.35c-10.97,16.19-17.22,35.63-17.22,56.13,0,55.228,44.772,100,100,100s100-44.772,100-100-44.772-100-100-100z" fill-rule="nonzero" fill="#abccff"/>
   <path d="m138.39,94.232c0,33.752-24.422,61.114-54.548,61.114s-54.548-27.362-54.548-61.114,24.422-61.114,54.548-61.114,54.548,27.362,54.548,61.114z" fill-rule="nonzero" transform="matrix(1.2831304,0,0,1.1452735,436.41893,680.44021)" fill="#333"/>
   <text style="letter-spacing:0px;word-spacing:0px;" font-weight="normal" font-variant="normal" font-size="32px" font-stretch="normal" line-height="125%" font-style="normal" y="778.03473" x="487.04056" font-family="Lucida Console" xml:space="preserve" fill="#abccff"><tspan font-weight="normal" font-size="32px" font-style="normal" font-stretch="normal" font-variant="normal" y="778.03473" x="487.04056" font-family="Roboto" fill="#abccff">RDBMS</tspan></text>
   <text style="letter-spacing:0px;word-spacing:0px;" font-weight="normal" font-variant="normal" font-size="14px" font-stretch="normal" line-height="125%" font-style="normal" y="797.99677" x="542.21326" font-family="Roboto" xml:space="preserve" fill="#abccff"><tspan style="text-anchor:middle;text-align:center;" y="797.99677" x="542.21326">SQL</tspan><tspan style="text-anchor:middle;text-align:center;" y="815.49677" x="542.21326">Oracle</tspan><tspan style="text-anchor:middle;text-align:center;" y="832.99677" x="542.21326">PL/SQL</tspan></text>
  </g>
 </g>
</svg>
